<?xml version="1.0" encoding="UTF-8"?>
<svg width="698px" height="340px" viewBox="0 0 698 340" version="1.1" xmlns="http://www.w3.org/2000/svg" xmlns:xlink="http://www.w3.org/1999/xlink">
    <title>Lifecycle</title>
    <defs>
        <polygon id="path-1" points="295.350386 78.0238095 295.350386 126.452381 312.169884 102.238095"></polygon>
    </defs>
    <g id="Lifecycle-main" stroke="none" stroke-width="1" fill="none" fill-rule="evenodd">
        <g id="Lifecycle">
            <g id="Group-4">
                <rect id="Rectangle" stroke="#979797" fill="#D8D8D8" x="171.55888" y="61.2083333" width="124.464286" height="145.958333"></rect>
                <rect id="Rectangle-Copy-12" stroke="#979797" fill="#D8D8D8" x="331.007722" y="61.2083333" width="186.360039" height="277.791667"></rect>
                <g id="Group-2" transform="translate(190.396718, 78.023810)">
                    <rect id="Rectangle" stroke="#005EB8" stroke-width="2" fill="#FFFFFF" x="-3.55271368e-14" y="7.10542736e-15" width="85.4430502" height="48.4285714"></rect>
                    <text id="Agile" fill="#232323" fill-rule="nonzero" font-family="Helvetica-Bold, Helvetica" font-size="18" font-weight="bold">
                        <tspan x="9.60328185" y="30.9761905">Agile</tspan>
                    </text>
                </g>
                <g id="Arrow-2-Copy">
                    <polygon id="Path-Copy-3" fill="#005EB8" style="mix-blend-mode: color;" points="0 0 19.6679468 0 19.6679468 48.4285714 0 48.4285714 17.4378141 24.2142857"></polygon>
                    <path d="M143.302124,0 L143.302124,48.4285714 L160.739938,24.2142857 L143.302124,0 Z M19.5106178,0 L143.302124,0 L143.302124,48.4285714 L19.5106178,48.4285714 L19.5106178,0 Z" id="Path-3" fill="#005EB8"></path>
                    <text id="Pre-discovery" font-family="Helvetica-Bold, Helvetica" font-size="14" font-weight="bold" fill="#FFFFFF">
                        <tspan x="30" y="30">Pre discovery</tspan>
                    </text>
                </g>
                <g id="assessment" transform="translate(0.000000, 73.988095)">
                    <polygon id="Path-Copy-7" fill="#005EB8" style="mix-blend-mode: color;" points="0 0 19.6679468 0 19.6679468 48.4285714 0 48.4285714 17.4378141 24.2142857"></polygon>
                    <path d="M143.302124,0 L143.302124,48.4285714 L160.739938,24.2142857 L143.302124,0 Z M19.5106178,0 L143.302124,0 L143.302124,48.4285714 L19.5106178,48.4285714 L19.5106178,0 Z" id="Path-3" fill="#005EB8"></path>
                    <text id="Strategic-assessment" font-family="Helvetica-Bold, Helvetica" font-size="14" font-weight="bold" fill="#FFFFFF">
                        <tspan x="30" y="21.0119048">Strategic </tspan>
                        <tspan x="30" y="38.0119048">assessment</tspan>
                    </text>
                </g>
                <g id="assessment-copy" transform="translate(536.205598, 271.738095)">
                    <polygon id="Path-Copy-8" fill="#005EB8" style="mix-blend-mode: color;" points="0 0 19.6679468 0 19.6679468 48.4285714 0 48.4285714 17.4378141 24.2142857"></polygon>
                    <path d="M143.302124,0 L143.302124,48.4285714 L160.739938,24.2142857 L143.302124,0 Z M19.5106178,0 L143.302124,0 L143.302124,48.4285714 L19.5106178,48.4285714 L19.5106178,0 Z" id="Path-3" fill="#005EB8"></path>
                    <text id="Retire" font-family="Helvetica-Bold, Helvetica" font-size="14" font-weight="bold" fill="#FFFFFF">
                        <tspan x="29.7944015" y="31.2619048">Retire</tspan>
                    </text>
                </g>
                <g id="assessment-copy-2" transform="translate(337.735521, 142.595238)">
                    <path d="M143.302124,0 L143.302124,48.4285714 L160.739938,24.2142857 L143.302124,0 Z M19.5106178,0 L143.302124,0 L143.302124,48.4285714 L19.5106178,48.4285714 L19.5106178,0 Z" id="Path-3" fill="#005EB8"></path>
                    <text id="Alpha" font-family="Helvetica-Bold, Helvetica" font-size="14" font-weight="bold" fill="#FFFFFF">
                        <tspan x="39.2644788" y="31.4047619">Alpha</tspan>
                    </text>
                </g>
                <g id="assessment-copy-6" transform="translate(337.735521, 78.023810)">
                    <path d="M143.302124,0 L143.302124,48.4285714 L160.739938,24.2142857 L143.302124,0 Z M19.5106178,0 L143.302124,0 L143.302124,48.4285714 L19.5106178,48.4285714 L19.5106178,0 Z" id="Path-3" fill="#005EB8"></path>
                    <text id="Discovery" font-family="Helvetica-Bold, Helvetica" font-size="14" font-weight="bold" fill="#FFFFFF">
                        <tspan x="39.2644788" y="29.9761905">Discovery</tspan>
                    </text>
                </g>
                <g id="assessment-copy-3" transform="translate(337.735521, 207.166667)">
                    <path d="M143.302124,0 L143.302124,48.4285714 L160.739938,24.2142857 L143.302124,0 Z M19.5106178,0 L143.302124,0 L143.302124,48.4285714 L19.5106178,48.4285714 L19.5106178,0 Z" id="Path-3" fill="#005EB8"></path>
                    <text id="Beta" font-family="Helvetica-Bold, Helvetica" font-size="14" font-weight="bold" fill="#FFFFFF">
                        <tspan x="39.2644788" y="30.8333333">Beta</tspan>
                    </text>
                </g>
                <g id="assessment-copy-4" transform="translate(337.735521, 271.738095)">
                    <path d="M143.302124,0 L143.302124,48.4285714 L160.739938,24.2142857 L143.302124,0 Z M19.5106178,0 L143.302124,0 L143.302124,48.4285714 L19.5106178,48.4285714 L19.5106178,0 Z" id="Path-3" fill="#005EB8"></path>
                    <text id="Live" font-family="Helvetica-Bold, Helvetica" font-size="14" font-weight="bold" fill="#FFFFFF">
                        <tspan x="39.2644788" y="31.2619048">Live</tspan>
                    </text>
                </g>
                <g id="Group-2-Copy-2" transform="translate(190.000000, 143.000000)">
                    <rect id="Rectangle" stroke="#979797" fill="#DAD9D9" x="0" y="0" width="85.4430502" height="48.4285714"></rect>
                    <text id="Waterfall" fill="#232323" fill-rule="nonzero" font-family="Helvetica-Bold, Helvetica" font-size="14" font-weight="bold">
                        <tspan x="10" y="30">Waterfall</tspan>
                    </text>
                </g>
                <mask id="mask-2" fill="white">
                    <use xlink:href="#path-1"></use>
                </mask>
                <use id="Path-2-Copy-14" stroke="#979797" fill="#D8D8D8" xlink:href="#path-1"></use>
            </g>
            <rect id="Rectangle" stroke="#DDDDDD" fill="#D8D8D8" x="294" y="77" width="1" height="52"></rect>
        </g>
    </g>
</svg>