<?xml version="1.0" encoding="UTF-8"?>
<svg width="24px" height="23px" viewBox="0 0 24 23" version="1.1" xmlns="http://www.w3.org/2000/svg" xmlns:xlink="http://www.w3.org/1999/xlink">
    <title>2</title>
    <g id="Page-1" stroke="none" stroke-width="1" fill="none" fill-rule="evenodd">
        <g id="Artboard" transform="translate(-1.000000, -1.000000)" fill="#005EB8" fill-rule="nonzero">
            <path d="M16.16,24 L16.16,20.48 L7.04,20.48 C10.688,16.896 15.456,12.544 15.456,7.808 C15.456,3.424 12.704,1.28 8.448,1.28 C6.176,1.28 3.84,1.856 1.824,2.88 L2.176,6.592 C3.648,5.632 5.44,4.8 7.328,4.8 C9.152,4.8 10.976,5.76 10.976,7.808 C10.976,11.904 3.392,18.24 1.312,20.256 L1.312,24 L16.16,24 Z M24.48,24 L24.48,19.52 L20,19.52 L20,24 L24.48,24 Z" id="2."></path>
        </g>
    </g>
</svg>