<?xml version="1.0" encoding="UTF-8"?>
<svg width="24px" height="24px" viewBox="0 0 24 24" version="1.1" xmlns="http://www.w3.org/2000/svg" xmlns:xlink="http://www.w3.org/1999/xlink">
    <title>3</title>
    <g id="Page-1" stroke="none" stroke-width="1" fill="none" fill-rule="evenodd">
        <g id="Artboard" transform="translate(-1.000000, -1.000000)" fill="#005EB8" fill-rule="nonzero">
            <path d="M7.296,24.384 C11.008,24.384 15.84,23.04 15.84,17.728 C15.84,15.008 14.432,12.8 11.584,12.416 L11.584,12.352 C13.856,11.488 15.744,10.048 15.744,7.008 C15.744,2.24 11.136,1.28 8.384,1.28 C6.08,1.28 3.936,1.696 2.144,2.4 L2.4,5.984 C3.968,5.216 5.664,4.8 7.424,4.8 C9.44,4.8 11.264,5.504 11.264,7.744 C11.264,9.696 9.312,10.688 6.304,10.688 L4.256,10.688 L4.256,14.208 L6.432,14.208 C9.28,14.208 11.36,15.072 11.36,17.696 C11.36,19.968 8.512,20.864 6.656,20.864 C4.896,20.864 3.232,20.448 1.696,19.84 L1.44,23.648 C3.104,24.128 5.344,24.384 7.296,24.384 Z M24.48,24 L24.48,19.52 L20,19.52 L20,24 L24.48,24 Z" id="3."></path>
        </g>
    </g>
</svg>