<?xml version="1.0" encoding="utf-8"?>
<!-- Generator: Adobe Illustrator 23.0.1, SVG Export Plug-In . SVG Version: 6.00 Build 0)  -->
<svg version="1.1" xmlns="http://www.w3.org/2000/svg" xmlns:xlink="http://www.w3.org/1999/xlink" x="0px" y="0px"
	 viewBox="0 0 240 240" style="enable-background:new 0 0 240 240;" xml:space="preserve">
<style type="text/css">
	.st0{fill:none;stroke:#FFB81C;stroke-width:4;stroke-linecap:round;stroke-linejoin:round;stroke-miterlimit:10;}
	.st1{fill:none;stroke:#FFB81C;stroke-width:4;stroke-miterlimit:10;}
	.st2{display:none;}
	.st3{display:inline;}
	.st4{fill:#99BFE3;}
	.st5{display:inline;fill:#99BFE3;}
	.st6{fill:#FFD477;}
	.st7{fill:#FFB81C;}
	.st8{fill:#FFB81C;stroke:#FFB81C;stroke-width:4;stroke-linecap:round;stroke-linejoin:round;stroke-miterlimit:10;}
	.st9{fill:none;stroke:#FFB81C;stroke-width:3.8583;stroke-linecap:round;stroke-linejoin:round;stroke-miterlimit:10;}
	.st10{fill:none;stroke:#FFB81C;stroke-width:4;stroke-linecap:round;stroke-linejoin:round;}
	.st11{fill:none;stroke:#FFB81C;stroke-width:4;stroke-linecap:round;stroke-linejoin:round;stroke-dasharray:15.7503,15.7503;}
</style>
<g id="Layer_1">
	<g>
		<path class="st0" d="M79.78,200H49.86c-2.78,0-5.04-2.26-5.04-5.04v-79.92c0-2.78,2.26-5.04,5.04-5.04h29.92
			c2.78,0,5.04,2.26,5.04,5.04v79.92C84.82,197.74,82.56,200,79.78,200z"/>
		<path class="st0" d="M131.16,200H104.6c-3.71,0-6.72-3.01-6.72-6.72V46.72c0-3.71,3.01-6.72,6.72-6.72h26.56
			c3.71,0,6.72,3.01,6.72,6.72v146.56C137.88,196.99,134.87,200,131.16,200z"/>
		<path class="st0" d="M188.06,200H159.7c-3.21,0-5.82-2.61-5.82-5.82V85.82c0-3.21,2.61-5.82,5.82-5.82h28.36
			c3.21,0,5.82,2.61,5.82,5.82v108.36C193.88,197.39,191.28,200,188.06,200z"/>
	</g>
</g>
<g id="Layer_2">
</g>
</svg>
