<svg xmlns="http://www.w3.org/2000/svg" viewBox="0 0 240 240"><defs><style>.cls-1,.cls-2{fill:none;stroke:#005EB8;stroke-width:4px;}.cls-1{stroke-miterlimit:10;}.cls-2{stroke-linecap:round;stroke-linejoin:round;}</style></defs><title>06-UNIVERSAL-SYMBOLS-CONCEPTS-B-YELLO</title><g id="Layer_2" data-name="Layer 2"><circle class="cls-1" cx="58.8" cy="140.92" r="37.8"/><path class="cls-2" d="M58.89,66.63a25.2,25.2,0,0,1,45.33,15.16"/><line class="cls-1" x1="58.89" y1="66.63" x2="25.79" y2="122.21"/><line class="cls-1" x1="104.22" y1="81.79" x2="95.57" y2="149.52"/><circle class="cls-1" cx="172.2" cy="140.92" r="37.8"/><path class="cls-2" d="M172.11,66.63a25.2,25.2,0,0,0-45.33,15.16"/><line class="cls-1" x1="172.11" y1="66.63" x2="205.21" y2="122.21"/><line class="cls-1" x1="126.78" y1="81.79" x2="135.43" y2="149.52"/><circle class="cls-1" cx="58.89" cy="140.92" r="28.35"/><circle class="cls-1" cx="172.2" cy="141.99" r="28.35"/><line class="cls-1" x1="104.22" y1="81.79" x2="126.78" y2="81.79"/><path class="cls-1" d="M96.6,133.83s18.76-17.38,37.8,0"/><path class="cls-1" d="M96.37,149.72s19.16-17.38,38.59,0"/></g></svg>
