<svg xmlns="http://www.w3.org/2000/svg" viewBox="0 0 240 240"><defs><style>.cls-1{fill:none;stroke:#005EB8;stroke-linecap:round;stroke-linejoin:round;stroke-width:4px;}</style></defs><title>06-UNIVERSAL-SYMBOLS-CONCEPTS-B-YELLO</title><g id="Layer_2" data-name="Layer 2"><path class="cls-1" d="M84.57,67c-3.94,0-7.13-2.55-7.13-5.69V38.59c0-3.14,3.19-5.69,7.13-5.69s7.13,2.55,7.13,5.69V61.33C91.7,64.47,88.51,67,84.57,67Z"/><path class="cls-1" d="M155.9,66.68c-3.94,0-7.13-2.54-7.13-5.68V38.26c0-3.15,3.19-5.69,7.13-5.69S163,35.11,163,38.26V61C163,64.14,159.84,66.68,155.9,66.68Z"/><line class="cls-1" x1="54.03" y1="99.88" x2="185.07" y2="99.88"/><line class="cls-1" x1="54.03" y1="132.83" x2="179.46" y2="132.83"/><line class="cls-1" x1="56.43" y1="163.77" x2="177.86" y2="163.77"/><line class="cls-1" x1="80.64" y1="107.09" x2="80.64" y2="192.04"/><line class="cls-1" x1="119.87" y1="107.27" x2="119.87" y2="192.23"/><line class="cls-1" x1="159.1" y1="107.27" x2="159.1" y2="172.19"/><path class="cls-1" d="M163.38,50.15h11a24,24,0,0,1,24,24V182.1a24,24,0,0,1-24,24.05H66.48A24.05,24.05,0,0,1,42.43,182.1V74.19a24,24,0,0,1,24.05-24h10.7"/><line class="cls-1" x1="92.1" y1="50.15" x2="148.77" y2="50.15"/></g></svg>
