<svg id="Layer_1" data-name="Layer 1" xmlns="http://www.w3.org/2000/svg" viewBox="0 0 240 240"><defs><style>.cls-1{fill:none;stroke:#005EB8;stroke-linecap:round;stroke-linejoin:round;stroke-width:4px;}</style></defs><title>06-UNIVERSAL-SYMBOLS-CONCEPTS-A-YELLO</title><rect class="cls-1" x="25.89" y="33.33" width="192" height="126"/><rect class="cls-1" x="41.01" y="49.08" width="162.08" height="94.5" rx="9"/><path class="cls-1" d="M165.9,72.06l6.35,12.87a3.17,3.17,0,0,0,2.38,1.73l14.2,2.06a3.17,3.17,0,0,1,1.76,5.41l-10.28,10a3.21,3.21,0,0,0-.91,2.81l2.43,14.14a3.17,3.17,0,0,1-4.6,3.34l-12.7-6.68a3.14,3.14,0,0,0-2.95,0l-12.7,6.68a3.17,3.17,0,0,1-4.59-3.34L146.71,107a3.16,3.16,0,0,0-.91-2.81l-10.27-10a3.17,3.17,0,0,1,1.75-5.41l14.2-2.06a3.18,3.18,0,0,0,2.39-1.73l6.35-12.87A3.17,3.17,0,0,1,165.9,72.06Z"/><polyline class="cls-1" points="134.57 159.33 134.57 213.99 149.57 194.99 164.57 213.99 164.57 159.33"/><polyline class="cls-1" points="173.09 159.33 173.09 213.99 188.09 194.99 203.09 213.99 203.09 159.33"/><line class="cls-1" x1="62.01" y1="76.4" x2="126.51" y2="76.4"/><line class="cls-1" x1="62.01" y1="98.99" x2="116.73" y2="98.99"/></svg>
