<?xml version="1.0" encoding="utf-8"?>
<!-- Generator: Adobe Illustrator 23.0.4, SVG Export Plug-In . SVG Version: 6.00 Build 0)  -->
<svg version="1.1" id="Layer_1" xmlns="http://www.w3.org/2000/svg" xmlns:xlink="http://www.w3.org/1999/xlink" x="0px" y="0px"
	 viewBox="0 0 240 240" style="enable-background:new 0 0 240 240;" xml:space="preserve">
<style type="text/css">
	.st0{fill:none;stroke:#005EB8;stroke-width:4;stroke-linecap:round;stroke-linejoin:round;}
</style>
<title>I-TL-Consistent-2-Blue-120x150</title>
<polyline class="st0" points="63.7,140.6 70.5,148.4 85,127.9 "/>
<polyline class="st0" points="63.7,106.7 70.5,114.4 85,93.9 "/>
<polyline class="st0" points="63.7,72.7 70.5,80.4 85,59.9 "/>
<path class="st0" d="M163.8,30.6h19.8c4.2,0,7.6,3.4,7.6,7.6v168.4c0,4.2-3.4,7.6-7.6,7.6H56.4c-4.2,0-7.6-3.4-7.6-7.6V38.1
	c0-4.2,3.4-7.6,7.6-7.6h22"/>
<path class="st0" d="M150.7,24H128c-0.3-3.6-3.5-6.3-7.2-6c-3.2,0.3-5.7,2.8-6,6H91.2c-2.1,0-3.8,1.7-3.8,3.8v7.7
	c0,2.1,1.7,3.8,3.8,3.8l0,0h59.5c2.1,0,3.8-1.7,3.8-3.8v-7.7C154.5,25.7,152.8,24,150.7,24z"/>
<line class="st0" x1="101.8" y1="170.8" x2="173" y2="170.8"/>
<line class="st0" x1="101.8" y1="136.8" x2="173" y2="136.8"/>
<line class="st0" x1="101.8" y1="102.8" x2="173" y2="102.8"/>
<line class="st0" x1="101.8" y1="68.8" x2="173" y2="68.8"/>
</svg>
