<svg id="Layer_1" data-name="Layer 1" xmlns="http://www.w3.org/2000/svg" width="240" height="240" viewBox="0 0 240 240">
  <title>ICONS Sets_v3</title>
  <g id="Pages_warning" data-name="Pages warning">
    <path d="M44,206.65V33.75a6.12,6.12,0,0,1,6.15-6.15H161.32l37,37v142a6.12,6.12,0,0,1-6.15,6.15h-142A6.2,6.2,0,0,1,44,206.65Z" style="fill: none;stroke: #005EB8;stroke-linecap: round;stroke-linejoin: round;stroke-width: 4px"/>
    <line x1="161.32" y1="27.6" x2="198.33" y2="64.62" style="fill: none;stroke: #005EB8;stroke-linecap: round;stroke-linejoin: round;stroke-width: 4px"/>
    <polyline points="198.33 64.62 161.32 64.62 161.32 27.6" style="fill: none;stroke: #005EB8;stroke-linecap: round;stroke-linejoin: round;stroke-width: 4px"/>
    <line x1="74.98" y1="89.33" x2="167.58" y2="89.33" style="fill: none;stroke: #005EB8;stroke-linecap: round;stroke-linejoin: round;stroke-width: 4px"/>
    <line x1="74.98" y1="59.33" x2="126.35" y2="59.33" style="fill: none;stroke: #005EB8;stroke-linecap: round;stroke-linejoin: round;stroke-width: 4px"/>
    <line x1="74.98" y1="119.33" x2="93.81" y2="119.33" style="fill: none;stroke: #005EB8;stroke-linecap: round;stroke-linejoin: round;stroke-width: 4px"/>
    <g>
      <path d="M158.12,184c-1-1.71-2-3.44-3.06-5.16l-32.31-54.51c-2.11-3.55-6.53-3.63-8.6-.15q-17.72,29.88-35.42,59.75a4.89,4.89,0,0,0-.22,5.26,4.83,4.83,0,0,0,4.6,2.4h70.7a4.8,4.8,0,0,0,4.54-2.5A4.7,4.7,0,0,0,158.12,184Z" style="fill: none;stroke: #005EB8;stroke-miterlimit: 10;stroke-width: 4px"/>
      <path d="M119.18,142.33h-.71c-.57,0-1.14,0-1.71,0s-.79.15-.77.81c.18,6.36.32,12.72.46,19.07.08,3.2.15,6.39.2,9.59,0,.47.15.63.62.61.77,0,1.55,0,2.33,0,.51,0,.65-.16.66-.67q.12-6.14.28-12.26c.12-5.11.23-10.21.36-15.32C121,142.33,121,142.33,119.18,142.33Z" style="fill: #005EB8"/>
      <path d="M121,177.39c0-.44-.1-.66-.59-.65-1.26,0-2.52,0-3.77,0-.46,0-.65.13-.63.61,0,.66,0,1.32,0,2s0,1.19,0,1.79.11.77.69.75c1.22,0,2.45,0,3.67,0,.46,0,.64-.16.63-.63C120.93,180,120.93,178.67,121,177.39Z" style="fill: #005EB8"/>
    </g>
  </g>
</svg>
