<svg id="Layer_1" data-name="Layer 1" xmlns="http://www.w3.org/2000/svg" width="240" height="240" viewBox="0 0 240 240">
  <title>ICONS Sets_v3</title>
  <g id="File_processing" data-name="File processing">
    <g id="File_processing-2" data-name="File processing">
      <g>
        <path d="M152.17,210.23q-59.43,0-118.85,0c-.41,0-2.54-.06-6-6V35.69a6,6,0,0,1,6-6H141.69l36.08,36.09v68.83" style="fill: none;stroke: #005EB8;stroke-linecap: round;stroke-linejoin: round;stroke-width: 4px"/>
        <line x1="141.69" y1="29.69" x2="177.77" y2="65.78" style="fill: none;stroke: #005EB8;stroke-linecap: round;stroke-linejoin: round;stroke-width: 4px"/>
        <polyline points="177.77 65.78 141.69 65.78 141.69 29.7" style="fill: none;stroke: #005EB8;stroke-linecap: round;stroke-linejoin: round;stroke-width: 4px"/>
        <line x1="57.52" y1="89.87" x2="147.79" y2="89.87" style="fill: none;stroke: #005EB8;stroke-linecap: round;stroke-linejoin: round;stroke-width: 4px"/>
        <line x1="57.52" y1="119.3" x2="147.79" y2="119.3" style="fill: none;stroke: #005EB8;stroke-linecap: round;stroke-linejoin: round;stroke-width: 4px"/>
        <line x1="57.52" y1="147.96" x2="107.6" y2="147.96" style="fill: none;stroke: #005EB8;stroke-linecap: round;stroke-linejoin: round;stroke-width: 4px"/>
      </g>
    </g>
    <g>
      <path d="M224.05,148.83c-24,16.72-36-8.48-36-8.48s-11.93,25.2-36,8.48c0,0-10.22,51.87,36,74.06C234.32,200.7,224.05,148.83,224.05,148.83Z" style="fill: none;stroke: #005EB8;stroke-linecap: round;stroke-linejoin: round;stroke-width: 4px"/>
      <line x1="188.1" y1="140.35" x2="188.1" y2="222.89" style="fill: none;stroke: #005EB8;stroke-linecap: round;stroke-linejoin: round;stroke-width: 4px"/>
    </g>
  </g>
</svg>
