<?xml version="1.0" encoding="UTF-8" standalone="no"?>
<svg xmlns="http://www.w3.org/2000/svg" data-name="Layer 1" height="60" id="Layer_1" viewBox="0 0 240 240" width="60">
  <title>ICONS Sets_v3</title>
  <g data-name="File processing" id="File_processing">
    <g data-name="File processing" id="File_processing-2">
      <g>
        <line style="fill: none;stroke: #005EB8;stroke-linecap: round;stroke-linejoin: round;stroke-width: 4px" x1="147.69" x2="183.77" y1="29.69" y2="65.78"/>
        <polyline points="183.77 65.78 147.69 65.78 147.69 29.7" style="fill: none;stroke: #005EB8;stroke-linecap: round;stroke-linejoin: round;stroke-width: 4px"/>
        <line style="fill: none;stroke: #005EB8;stroke-linecap: round;stroke-linejoin: round;stroke-width: 4px" x1="63.52" x2="153.79" y1="89.87" y2="89.87"/>
        <line style="fill: none;stroke: #005EB8;stroke-linecap: round;stroke-linejoin: round;stroke-width: 4px" x1="63.52" x2="153.79" y1="119.3" y2="119.3"/>
        <line style="fill: none;stroke: #005EB8;stroke-linecap: round;stroke-linejoin: round;stroke-width: 4px" x1="63.52" x2="113.6" y1="147.96" y2="147.96"/>
      </g>
    </g>
    <path d="M183.77,132.19V65.78L147.69,29.69H39.32a6,6,0,0,0-6,6V204.24a6,6,0,0,0,6,6h90.56" style="fill: none;stroke: #005EB8;stroke-miterlimit: 10;stroke-width: 4px"/>
  </g>
  <path d="M219.42,194l-5.95-3.42a2.66,2.66,0,0,1-1.29-2.48c.1-1.1.15-2.19.15-3.29a39.24,39.24,0,0,0-.24-4.09,2.61,2.61,0,0,1,1.24-2.57l5.66-3.29a2.59,2.59,0,0,0,1-3.53l-9-15.57a2.58,2.58,0,0,0-3.53-.95l-6,3.43a2.6,2.6,0,0,1-2.81-.15,37.17,37.17,0,0,0-6.38-3.62,2.64,2.64,0,0,1-1.62-2.38V145.6A2.56,2.56,0,0,0,188,143h-18a2.56,2.56,0,0,0-2.57,2.57v6.9a2.58,2.58,0,0,1-1.52,2.34,32.4,32.4,0,0,0-6.34,3.76,2.61,2.61,0,0,1-2.86.19l-5.66-3.29a2.59,2.59,0,0,0-3.53,1l-9,15.57a2.59,2.59,0,0,0,1,3.53l6,3.42a2.65,2.65,0,0,1,1.28,2.48c-.09,1.1-.14,2.19-.14,3.29a36.68,36.68,0,0,0,.24,4.09,2.64,2.64,0,0,1-1.24,2.58L140,194.7a2.59,2.59,0,0,0-.95,3.53l9,15.57a2.58,2.58,0,0,0,3.53.95l6-3.43a2.6,2.6,0,0,1,2.81.15,37.17,37.17,0,0,0,6.38,3.62,2.64,2.64,0,0,1,1.62,2.38V224a2.56,2.56,0,0,0,2.57,2.57h17.95a2.57,2.57,0,0,0,2.58-2.57v-6.9a2.58,2.58,0,0,1,1.52-2.34,32.33,32.33,0,0,0,6.33-3.76,2.61,2.61,0,0,1,2.86-.19l5.67,3.29a2.57,2.57,0,0,0,3.52-1l9-15.57A2.59,2.59,0,0,0,219.42,194Zm-40,10.05a19.29,19.29,0,1,1,19.29-19.28A19.26,19.26,0,0,1,179.46,204.08Z" style="fill: none;stroke: #005EB8;stroke-linecap: round;stroke-linejoin: round;stroke-width: 4px"/>
</svg>
