<?xml version="1.0" encoding="utf-8"?>
<!-- Generator: Adobe Illustrator 22.1.0, SVG Export Plug-In . SVG Version: 6.00 Build 0)  -->
<svg version="1.1" id="Layer_1" xmlns="http://www.w3.org/2000/svg" xmlns:xlink="http://www.w3.org/1999/xlink" x="0px" y="0px"
	 viewBox="0 0 240 240" style="enable-background:new 0 0 240 240;" xml:space="preserve">
<style type="text/css">
	.st0{fill:none;stroke:#005EB8;stroke-width:4;stroke-linecap:round;stroke-linejoin:round;stroke-miterlimit:10;}
	.st1{fill:none;stroke:#005EB8;stroke-width:3.6549;stroke-linecap:round;stroke-linejoin:round;stroke-miterlimit:10;}
	.st2{fill:none;stroke:#005EB8;stroke-width:4;stroke-linecap:round;stroke-linejoin:round;}
	.st3{fill:none;stroke:#005EB8;stroke-width:4;stroke-linecap:round;stroke-linejoin:round;stroke-dasharray:14.1176,10.5882;}
	.st4{fill:#005EB8;}
</style>
<polyline class="st0" points="189.1,193.6 172.1,176.7 189.1,159.7 "/>
<polyline class="st0" points="54.1,42.5 71,59.5 54.1,76.4 "/>
<path class="st0" d="M162.1,78.3h-81c-5,0-9-4-9-9v-27c0-5,4-9,9-9h81c5,0,9,4,9,9v27C171.1,74.2,167,78.3,162.1,78.3z"/>
<path class="st0" d="M162.1,138.3h-81c-5,0-9-4-9-9v-27c0-5,4-9,9-9h81c5,0,9,4,9,9v27C171.1,134.2,167,138.3,162.1,138.3z"/>
<path class="st0" d="M162.1,198.3h-81c-5,0-9-4-9-9v-27c0-5,4-9,9-9h81c5,0,9,4,9,9v27C171.1,194.2,167,198.3,162.1,198.3z"/>
<line class="st0" x1="121.2" y1="78.3" x2="121.2" y2="93.3"/>
<line class="st0" x1="121.2" y1="138.3" x2="121.2" y2="153.3"/>
<line class="st0" x1="171.1" y1="59.5" x2="207.1" y2="59.5"/>
<line class="st0" x1="171.1" y1="176.7" x2="207.1" y2="176.7"/>
<line class="st0" x1="207.1" y1="59.5" x2="207.1" y2="176.7"/>
<line class="st0" x1="72.1" y1="176.5" x2="36.1" y2="176.5"/>
<line class="st0" x1="72.1" y1="59.3" x2="36.1" y2="59.3"/>
<line class="st0" x1="36.1" y1="176.5" x2="36.1" y2="59.3"/>
</svg>
