<?xml version="1.0" encoding="UTF-8" standalone="no"?>
<svg xmlns="http://www.w3.org/2000/svg" data-name="Layer 1" height="60" id="Layer_1" viewBox="0 0 240 240" width="60">
  <title>ICONS Sets_v4_FileTypes_4</title>
  <g id="IMG">
    <path d="M46.14,206.45V33.55a6.12,6.12,0,0,1,6.15-6.15H163.46l37,37v142a6.12,6.12,0,0,1-6.15,6.15h-142A6.2,6.2,0,0,1,46.14,206.45Z" style="fill: none;stroke: #005EB8;stroke-linecap: round;stroke-linejoin: round;stroke-width: 4px"/>
    <line style="fill: none;stroke: #005EB8;stroke-linecap: round;stroke-linejoin: round;stroke-width: 4px" x1="163.46" x2="200.47" y1="27.4" y2="64.42"/>
    <polyline points="200.47 64.42 163.46 64.42 163.46 27.4" style="fill: none;stroke: #005EB8;stroke-linecap: round;stroke-linejoin: round;stroke-width: 4px"/>
    <text style="font-size: 42px;fill: #005EB8;font-family: ArialMT, Arial" transform="translate(84.14 190.01)">IMG</text>
    <polygon points="170.46 136 151.9 109.39 133.34 83.12 114.78 109.39 109.88 116.39 99.02 100.63 86.41 118.49 74.16 136 99.02 136 123.88 136 123.53 136 133.34 136 170.46 136" style="fill: none;stroke: #005EB8;stroke-linecap: round;stroke-linejoin: round;stroke-width: 4px"/>
    <path d="M101.82,73.67a12.93,12.93,0,0,1-13,13,13,13,0,0,1,0-25.92A12.92,12.92,0,0,1,101.82,73.67Z" style="fill: none;stroke: #005EB8;stroke-linecap: round;stroke-linejoin: round;stroke-width: 4px"/>
  </g>
</svg>
