<svg id="Layer_1" data-name="Layer 1" xmlns="http://www.w3.org/2000/svg" width="240" height="240" viewBox="0 0 240 240">
  <title>ICONS Sets_v3</title>
  <g id="megaphone">
    <polygon points="185.88 180.96 87.25 154.25 87.25 85.75 185.88 59.04 185.88 180.96" style="fill: none;stroke: #005EB8;stroke-linecap: round;stroke-linejoin: round;stroke-width: 4px"/>
    <rect x="48.24" y="85.76" width="39.64" height="68.49" style="fill: none;stroke: #005EB8;stroke-linecap: round;stroke-linejoin: round;stroke-width: 4px"/>
    <path d="M187.35,100.32a18.65,18.65,0,0,1,13.46,5.77,20.13,20.13,0,0,1,0,27.82,18.65,18.65,0,0,1-13.46,5.77" style="fill: none;stroke: #005EB8;stroke-linecap: round;stroke-linejoin: round;stroke-width: 4px"/>
    <path d="M48.25,139.91H38.47a4.92,4.92,0,0,1-4.84-5v-20.1a4.92,4.92,0,0,1,4.84-5h9.78" style="fill: none;stroke: #005EB8;stroke-linecap: round;stroke-linejoin: round;stroke-width: 4px"/>
    <path d="M78.2,154.56,97.55,203H77L57.6,154.56" style="fill: none;stroke: #005EB8;stroke-linecap: round;stroke-linejoin: round;stroke-width: 4px"/>
  </g>
</svg>
