<svg id="Layer_1" data-name="Layer 1" xmlns="http://www.w3.org/2000/svg" viewBox="0 0 240 240"><defs><style>.cls-1{fill:none;stroke:#005EB8;stroke-linecap:round;stroke-linejoin:round;stroke-width:4px;}</style></defs><title>06-UNIVERSAL-SYMBOLS-CONCEPTS-A-YELLO</title><path class="cls-1" d="M146.29,61.91c1.14.23,2.29.47,3.43.73,15.93,3.58,29.59,11.17,40.54,23.28,3.2,3.53,5.69,7.7,8.49,11.58.4.56.72,1.17,1.08,1.78,7.95-7.39,23.23-1.27,25,10.49.63,4.06.36,8.26.51,12.4a38.82,38.82,0,0,0,.36,6.76,18.26,18.26,0,0,0,2.52,5.13,4.51,4.51,0,0,1,.18,5,4.19,4.19,0,0,1-4.61,1.91,5.82,5.82,0,0,1-2.56-1.54c-3.41-3.54-4.61-8-4.72-12.72-.1-4.37.08-8.74,0-13.1-.12-4.66-3.06-8-7.26-8.57-2.51-.33-3.58.25-3.71,2.74a29.81,29.81,0,0,0,.48,7.67c4.49,20.84.13,39.76-12.19,57A4.55,4.55,0,0,0,193,176c1.21,8.92,2.44,17.84,3.53,26.77A11.74,11.74,0,0,1,184.9,216c-8,.1-16,.07-24,0a11.1,11.1,0,0,1-11.14-9.75c-.24-1.59-.42-3.2-.61-4.63-4.89,0-9.58-.07-14.26,0-10.89.19-21.79.44-32.68.66-3,.06-5.93.13-8.9.11-1.12,0-1.48.38-1.57,1.47A23,23,0,0,1,91,208c-1.42,5-5.33,7.94-11,8q-11.82.14-23.64,0a11.73,11.73,0,0,1-11.59-13.38c.88-6.79,1.84-13.56,2.69-20.35a2.67,2.67,0,0,0-.66-1.93A71.82,71.82,0,0,1,30.88,156.8a2.31,2.31,0,0,0-2.23-1.45c-2.67-.34-5.35-.66-8-1a11,11,0,0,1-9.73-11.1c0-7.71,0-15.43,0-23.15a11.12,11.12,0,0,1,10-11.38c2.72-.36,5.45-.73,8.19-1a1.8,1.8,0,0,0,1.75-1.31A61.89,61.89,0,0,1,43.53,86.5c2-2.13,2.41-3.92,1.42-6.63a68.18,68.18,0,0,1-3-10.87c-1.33-7,3.87-13.89,10.93-15.12,3.79-.66,7.18.51,10.5,1.87,5.18,2.11,10.23,4.52,15.37,6.73a4,4,0,0,0,2.42.32,120.92,120.92,0,0,1,26-3.74q3.51-.16,7-.19"/><circle class="cls-1" cx="60.3" cy="103.94" r="6.26"/><path class="cls-1" d="M101.69,76.16s36-3,55,6.5"/><circle class="cls-1" cx="132.19" cy="39.47" r="26.5"/></svg>
