<?xml version="1.0" encoding="utf-8"?>
<!-- Generator: Adobe Illustrator 22.1.0, SVG Export Plug-In . SVG Version: 6.00 Build 0)  -->
<svg version="1.1" xmlns="http://www.w3.org/2000/svg" xmlns:xlink="http://www.w3.org/1999/xlink" x="0px" y="0px"
	 viewBox="0 0 240 240" style="enable-background:new 0 0 240 240;" xml:space="preserve">
<style type="text/css">
	.st0{fill:none;stroke:#005EB8;stroke-width:4;stroke-linecap:round;stroke-miterlimit:10;}
	.st1{fill:none;stroke:#005EB8;stroke-width:3.7335;stroke-linecap:round;stroke-linejoin:round;stroke-miterlimit:10;}
	.st2{fill:none;stroke:#005EB8;stroke-width:4.1069;stroke-linecap:round;stroke-linejoin:round;stroke-miterlimit:10;}
	.st3{fill:none;stroke:#005EB8;stroke-width:4;stroke-linecap:round;stroke-linejoin:round;stroke-miterlimit:10;}
	.st4{display:none;}
	.st5{display:inline;}
	.st6{fill:#005EB8;}
	.st7{display:inline;fill:#005EB8;}
	.st8{fill:none;stroke:#005EB8;stroke-width:4;stroke-miterlimit:10;}
	.st9{fill:#005EB8;}
	.st10{fill:#005EB8;}
	.st11{fill:none;stroke:#005EB8;stroke-width:3.8462;stroke-linecap:round;stroke-linejoin:round;stroke-miterlimit:10;}
	.st12{fill:none;stroke:#005EB8;stroke-width:4;stroke-linecap:round;stroke-linejoin:round;}
	.st13{fill:none;stroke:#005EB8;stroke-width:3.7973;stroke-miterlimit:10;}
	.st14{fill:none;stroke:#005EB8;stroke-width:3.5837;stroke-linecap:round;stroke-linejoin:round;stroke-miterlimit:10;}
</style>
<g id="Layer_1">
	<path class="st8" d="M147.5,96.9c0,23.6-19.1,42.7-42.7,42.7c-23.6,0-42.7-19.1-42.7-42.7c0-23.6,19.1-42.7,42.7-42.7
		C128.4,54.2,147.5,73.3,147.5,96.9z"/>
	<path class="st3" d="M134.9,148.9c-8.7,4.9-18.7,7.7-29.4,7.7c-33.1,0-60-26.9-60-60s26.9-60,60-60s60,26.9,60,60
		c0,13.9-4.8,26.8-12.7,37l47.3,49.4c0,0,8.1,8.7-0.6,16.8l-0.4,0.3c0,0-8.7,8.1-16.8-0.6l-46.6-49.9"/>
</g>
<g id="Layer_2">
</g>
</svg>
