<svg id="Layer_1" data-name="Layer 1" xmlns="http://www.w3.org/2000/svg" width="240" height="240" viewBox="0 0 240 240">
  <title>ICONS Sets_v4_FileTypes_4</title>
  <g id="Life_buoy" data-name="Life buoy">
    <path d="M76.65,147.49a51.32,51.32,0,0,1,.27-55.42A11.15,11.15,0,0,1,75,90.53L52.28,67.83a85.45,85.45,0,0,0-.27,104l23-23A11.33,11.33,0,0,1,76.65,147.49Z" style="fill: none;stroke: #005EB8;stroke-linecap: round;stroke-linejoin: round;stroke-width: 3.654900074005127px"/>
    <path d="M92.54,76.63a51.29,51.29,0,0,1,55.06.09,11.16,11.16,0,0,1,1.65-2.13L171.83,52a85.46,85.46,0,0,0-103.55-.08L90.93,74.59A10.79,10.79,0,0,1,92.54,76.63Z" style="fill: none;stroke: #005EB8;stroke-linecap: round;stroke-linejoin: round;stroke-width: 3.654900074005127px"/>
    <path d="M163.13,92.15a51.32,51.32,0,0,1,.28,55.25,12.22,12.22,0,0,1,1.79,1.45l22.87,22.87a85.44,85.44,0,0,0-.27-103.79l-22.6,22.6A11.27,11.27,0,0,1,163.13,92.15Z" style="fill: none;stroke: #005EB8;stroke-linecap: round;stroke-linejoin: round;stroke-width: 3.654900074005127px"/>
    <path d="M147.87,163.11a51.29,51.29,0,0,1-55.61.08,11.26,11.26,0,0,1-1.33,1.61l-23,23a85.43,85.43,0,0,0,104.24-.08L149.25,164.8A11.59,11.59,0,0,1,147.87,163.11Z" style="fill: none;stroke: #005EB8;stroke-linecap: round;stroke-linejoin: round;stroke-width: 3.654900074005127px"/>
    <path d="M68.28,51.93,64.7,48.35a11.28,11.28,0,0,0-16,15.95l3.53,3.53" style="fill: none;stroke: #005EB8;stroke-linecap: round;stroke-linejoin: round;stroke-width: 3.654900074005127px"/>
    <path d="M76.92,92.07A11.26,11.26,0,0,0,92.54,76.63" style="fill: none;stroke: #005EB8;stroke-linecap: round;stroke-linejoin: round;stroke-width: 3.654900074005127px"/>
    <path d="M172.17,187.72l3.32,3.31a11.27,11.27,0,0,0,15.95-15.94l-3.37-3.37" style="fill: none;stroke: #005EB8;stroke-linecap: round;stroke-linejoin: round;stroke-width: 3.654900074005127px"/>
    <path d="M163.41,147.4a11.27,11.27,0,0,0-15.54,15.71" style="fill: none;stroke: #005EB8;stroke-linecap: round;stroke-linejoin: round;stroke-width: 3.654900074005127px"/>
    <path d="M52,171.83l-3.26,3.26A11.27,11.27,0,0,0,64.7,191l3.23-3.23" style="fill: none;stroke: #005EB8;stroke-linecap: round;stroke-linejoin: round;stroke-width: 3.654900074005127px"/>
    <path d="M92.26,163.19a11.27,11.27,0,0,0-15.61-15.7" style="fill: none;stroke: #005EB8;stroke-linecap: round;stroke-linejoin: round;stroke-width: 3.654900074005127px"/>
    <path d="M187.8,67.93l3.64-3.63a11.28,11.28,0,0,0-15.95-15.95L171.83,52" style="fill: none;stroke: #005EB8;stroke-linecap: round;stroke-linejoin: round;stroke-width: 3.654900074005127px"/>
    <path d="M147.6,76.72a11.26,11.26,0,0,0,15.53,15.43" style="fill: none;stroke: #005EB8;stroke-linecap: round;stroke-linejoin: round;stroke-width: 3.654900074005127px"/>
  </g>
</svg>
