<?xml version="1.0" encoding="utf-8"?>
<!-- Generator: Adobe Illustrator 22.1.0, SVG Export Plug-In . SVG Version: 6.00 Build 0)  -->
<svg version="1.1" xmlns="http://www.w3.org/2000/svg" xmlns:xlink="http://www.w3.org/1999/xlink" x="0px" y="0px"
	 viewBox="0 0 240 240" style="enable-background:new 0 0 240 240;" xml:space="preserve">
<style type="text/css">
	.st0{display:none;}
	.st1{display:inline;}
	.st2{fill:#005EB8;}
	.st3{display:inline;fill:#005EB8;}
	.st4{fill:none;stroke:#005EB8;stroke-width:4;stroke-linecap:round;stroke-linejoin:round;stroke-miterlimit:10;}
	.st5{fill:none;stroke:#005EB8;stroke-width:4.2289;stroke-linecap:round;stroke-linejoin:round;stroke-miterlimit:10;}
	.st6{fill:#005EB8;}
	.st7{fill:none;stroke:#005EB8;stroke-width:3.8462;stroke-linecap:round;stroke-linejoin:round;stroke-miterlimit:10;}
	.st8{fill:none;stroke:#005EB8;stroke-width:4;stroke-miterlimit:10;}
	.st9{fill:none;stroke:#005EB8;stroke-width:4.1398;stroke-linecap:round;stroke-linejoin:round;stroke-miterlimit:10;}
	.st10{fill:none;stroke:#005EB8;stroke-width:3.964;stroke-linecap:round;stroke-linejoin:round;stroke-miterlimit:10;}
	.st11{fill:none;stroke:#005EB8;stroke-width:4.018;stroke-linecap:round;stroke-linejoin:round;stroke-miterlimit:10;}
	.st12{fill:none;stroke:#005EB8;stroke-width:4;stroke-linecap:round;stroke-linejoin:bevel;stroke-miterlimit:10;}
	.st13{fill:none;stroke:#005EB8;stroke-width:3.8153;stroke-linecap:round;stroke-linejoin:round;stroke-miterlimit:10;}
	.st14{fill:none;stroke:#005EB8;stroke-width:3.8841;stroke-linecap:round;stroke-linejoin:round;stroke-miterlimit:10;}
	.st15{fill:none;stroke:#005EB8;stroke-width:4.0218;stroke-linecap:round;stroke-linejoin:round;stroke-miterlimit:10;}
	.st16{fill:none;stroke:#005EB8;stroke-width:3.9182;stroke-linecap:round;stroke-linejoin:round;stroke-miterlimit:10;}
	.st17{fill:none;stroke:#005EB8;stroke-width:3.7359;stroke-linecap:round;stroke-linejoin:round;stroke-miterlimit:10;}
	.st18{fill:none;stroke:#005EB8;stroke-width:4.3689;stroke-linecap:round;stroke-linejoin:round;stroke-miterlimit:10;}
	.st19{fill:none;stroke:#005EB8;stroke-width:4.3135;stroke-linecap:round;stroke-linejoin:round;stroke-miterlimit:10;}
	.st20{fill:none;stroke:#005EB8;stroke-width:3.8138;stroke-linecap:round;stroke-linejoin:round;stroke-miterlimit:10;}
	.st21{fill:#005EB8;stroke:#005EB8;stroke-width:4;stroke-miterlimit:10;}
	.st22{fill:none;stroke:#005EB8;stroke-width:3;stroke-miterlimit:10;}
	.st23{fill:none;stroke:#005EB8;stroke-width:3.6612;stroke-miterlimit:10;}
	.st24{fill:none;stroke:#005EB8;stroke-miterlimit:10;}
	.st25{fill:none;stroke:#005EB8;stroke-width:4.237;stroke-linecap:round;stroke-linejoin:round;stroke-miterlimit:10;}
	.st26{fill:none;stroke:#005EB8;stroke-width:4.0613;stroke-linecap:round;stroke-linejoin:round;stroke-miterlimit:10;}
</style>
<g id="Layer_1">
</g>
<g id="Layer_2">
	<g>
		<path class="st4" d="M183.8,222.5h-124c-2.9,0-5.3-2.4-5.3-5.3V23.9c0-2.9,2.4-5.3,5.3-5.3h124c2.9,0,5.3,2.4,5.3,5.3v193.3
			C189.1,220.1,186.7,222.5,183.8,222.5z"/>
		<path class="st4" d="M138.1,157.4h-33.2c-0.9,0-1.7-0.8-1.7-1.7v-41.5V81.2c0-0.9,0.8-1.7,1.7-1.7h33.2c0.9,0,1.7,0.8,1.7,1.7v34"
			/>
		<line class="st4" x1="150.3" y1="138.5" x2="117.3" y2="138.7"/>
		<polyline class="st4" points="138.1,157.4 150.9,139.2 139.8,115.3 103.2,115.3 117.3,138.7 104.9,157.4 		"/>
		<g>
			<g>
				<path class="st4" d="M178.6,206.5c0,3.8-3.1,6.9-6.9,6.9c-1.9,0-3.6-0.8-4.8-2s-2-3-2-4.8c0-3.8,3.1-6.9,6.9-6.9
					C175.6,199.6,178.6,202.7,178.6,206.5z"/>
				<line class="st4" x1="176.8" y1="201.8" x2="166.9" y2="211.3"/>
			</g>
			<g>
				<path class="st4" d="M165,32.8c0.5-3.8,4-6.4,7.7-5.9c1.9,0.3,3.5,1.2,4.5,2.6c1.1,1.4,1.6,3.2,1.3,5.1c-0.5,3.8-4,6.4-7.7,5.9
					S164.5,36.6,165,32.8z"/>
				<line class="st4" x1="166.2" y1="37.7" x2="177.2" y2="29.6"/>
			</g>
		</g>
		<g>
			<g>
				<path class="st4" d="M77,206.5c0,3.8-3.1,6.9-6.9,6.9c-1.9,0-3.6-0.8-4.8-2s-2-3-2-4.8c0-3.8,3.1-6.9,6.9-6.9
					C73.9,199.6,77,202.7,77,206.5z"/>
				<line class="st4" x1="75.1" y1="201.8" x2="65.3" y2="211.3"/>
			</g>
			<g>
				<path class="st4" d="M69.9,40.6c-3.8-0.1-6.8-3.3-6.6-7.1c0.1-1.9,0.9-3.6,2.2-4.8c1.3-1.2,3-1.9,4.9-1.9
					c3.8,0.1,6.8,3.3,6.6,7.1C76.8,37.7,73.7,40.7,69.9,40.6z"/>
				<line class="st4" x1="74.6" y1="38.8" x2="65.4" y2="28.7"/>
			</g>
		</g>
	</g>
</g>
</svg>
