<?xml version="1.0" encoding="utf-8"?>
<!-- Generator: Adobe Illustrator 22.1.0, SVG Export Plug-In . SVG Version: 6.00 Build 0)  -->
<svg version="1.1" xmlns="http://www.w3.org/2000/svg" xmlns:xlink="http://www.w3.org/1999/xlink" x="0px" y="0px"
	 viewBox="0 0 240 240" style="enable-background:new 0 0 240 240;" xml:space="preserve">
<style type="text/css">
	.st0{fill:none;stroke:#005EB8;stroke-width:4;stroke-linecap:round;stroke-miterlimit:10;}
	.st1{fill:none;stroke:#005EB8;stroke-width:3.7335;stroke-linecap:round;stroke-linejoin:round;stroke-miterlimit:10;}
	.st2{fill:none;stroke:#005EB8;stroke-width:4.1069;stroke-linecap:round;stroke-linejoin:round;stroke-miterlimit:10;}
	.st3{fill:none;stroke:#005EB8;stroke-width:4;stroke-linecap:round;stroke-linejoin:round;stroke-miterlimit:10;}
	.st4{display:none;}
	.st5{display:inline;}
	.st6{fill:#005EB8;}
	.st7{display:inline;fill:#005EB8;}
	.st8{fill:none;stroke:#005EB8;stroke-width:4;stroke-miterlimit:10;}
	.st9{fill:#005EB8;}
	.st10{fill:#005EB8;}
	.st11{fill:none;stroke:#005EB8;stroke-width:3.8462;stroke-linecap:round;stroke-linejoin:round;stroke-miterlimit:10;}
	.st12{fill:none;stroke:#005EB8;stroke-width:4;stroke-linecap:round;stroke-linejoin:round;}
	.st13{fill:none;stroke:#005EB8;stroke-width:3.7973;stroke-miterlimit:10;}
	.st14{fill:none;stroke:#005EB8;stroke-width:3.5837;stroke-linecap:round;stroke-linejoin:round;stroke-miterlimit:10;}
</style>
<g id="Layer_1">
	<g>
		<path class="st3" d="M96.8,152c-18.2,13.8-47.1,2.7-47.7-19.5c-18.6-4.9-30.6-15.5-32.8-32.7c-2.2-17.3,6.7-30,23.9-38.5
			c-1.9-8.9-0.6-17.6,4.2-25.7c4.2-7.2,10.5-12.8,18.7-16.7c15.5-7.4,36.1-6.4,51.4,5.7C125.2,12.7,139,7.3,156,10.4
			c16.9,3,27.3,12.7,32,27.1c23.8,0.4,39.9,10,46.1,30.6c4.1,13.8-1.9,32.9-22.8,42.9c9.5,21.4-14.7,41.8-38.2,33.1
			c-7.1,13.4-18.7,21.7-35.5,23.5C120.8,169.3,107.2,163.6,96.8,152z"/>
		<circle class="st3" cx="30.1" cy="155.7" r="13.8"/>
		<circle class="st3" cx="20.2" cy="190.6" r="10.9"/>
		<circle class="st3" cx="32" cy="216.6" r="7.3"/>
	</g>
</g>
<g id="Layer_2">
</g>
</svg>
