<?xml version="1.0" encoding="utf-8"?>
<!-- Generator: Adobe Illustrator 23.0.4, SVG Export Plug-In . SVG Version: 6.00 Build 0)  -->
<svg version="1.1" id="Layer_1" xmlns="http://www.w3.org/2000/svg" xmlns:xlink="http://www.w3.org/1999/xlink" x="0px" y="0px"
	 viewBox="0 0 240 240" style="enable-background:new 0 0 240 240;" xml:space="preserve">
<style type="text/css">
	.st0{fill:none;stroke:#005EB8;stroke-width:4;stroke-linecap:round;stroke-miterlimit:10;}
</style>
<title>I-TL-Trustowrthy-Blue-120x150</title>
<path class="st0" d="M218.9,120.1c0,8.4-11.4,15.2-13.5,22.9c-2.1,7.7,4.2,19.6,0.2,26.6s-17.4,7.3-23.1,13.1
	c-5.7,5.8-6,19-13.1,23.1c-7.1,4.1-18.6-2.4-26.6-0.2c-8,2.1-14.5,13.5-22.9,13.5s-15.2-11.4-22.9-13.5c-7.7-2.1-19.6,4.2-26.6,0.2
	c-7-4-7.3-17.4-13.1-23.1s-19-6-23.1-13.1s2.4-18.6,0.2-26.6c-2.1-8-13.5-14.5-13.5-22.9s11.3-15.2,13.3-22.9
	c2.1-7.7-4.2-19.6-0.2-26.6c4-7,17.4-7.3,23.1-13.1s6-19.1,13.2-23.3C77.5,30,89,36.6,97,34.5S111.5,21,119.9,21
	s15.2,11.4,22.9,13.5c7.7,2.1,19.6-4.2,26.6-0.2c7,4,7.3,17.4,13.1,23.1c5.8,5.7,19.1,6,23.3,13.2c4.2,7.1-2.4,18.6-0.2,26.6
	C207.7,105.1,218.9,111.7,218.9,120.1z"/>
<polyline class="st0" points="77.7,119.9 105.2,153.3 161,88 "/>
</svg>
