<svg xmlns="http://www.w3.org/2000/svg" viewBox="0 0 240 240"><defs><style>.cls-1{fill:none;stroke:#005EB8;stroke-linecap:round;stroke-linejoin:round;stroke-width:4px;}</style></defs><title>06-UNIVERSAL-SYMBOLS-CONCEPTS-B-YELLO</title><g id="Layer_2" data-name="Layer 2"><path class="cls-1" d="M47,145.78,19.54,192.3h0a10.83,10.83,0,0,0,9.33,16.35H219.1a10.84,10.84,0,0,0,9.34-16.35l-95.12-161a10.84,10.84,0,0,0-18.67,0L78,93.29Z"/><path class="cls-1" d="M111.4,178a13.48,13.48,0,0,1,1-5.21,12.82,12.82,0,0,1,2.82-4.27,13,13,0,0,1,4.27-2.82,13.94,13.94,0,0,1,10.42,0,12.85,12.85,0,0,1,7.09,7.09,13.94,13.94,0,0,1,0,10.42,12.85,12.85,0,0,1-7.09,7.09,13.94,13.94,0,0,1-10.42,0,13,13,0,0,1-4.27-2.82,12.82,12.82,0,0,1-2.82-4.27A13.48,13.48,0,0,1,111.4,178Zm24.17-21.42H113.86V71.29h21.71Z"/></g></svg>
