<?xml version="1.0" encoding="utf-8"?>
<!-- Generator: Adobe Illustrator 23.0.1, SVG Export Plug-In . SVG Version: 6.00 Build 0)  -->
<svg version="1.1" xmlns="http://www.w3.org/2000/svg" xmlns:xlink="http://www.w3.org/1999/xlink" x="0px" y="0px"
	 viewBox="0 0 240 240" style="enable-background:new 0 0 240 240;" xml:space="preserve">
<style type="text/css">
	.st0{fill:none;stroke:#005EB8;stroke-width:4;stroke-linecap:round;stroke-linejoin:round;stroke-miterlimit:10;}
	.st1{fill:none;stroke:#005EB8;stroke-width:4;stroke-miterlimit:10;}
	.st2{display:none;}
	.st3{display:inline;}
	.st4{fill:#99BFE3;}
	.st5{display:inline;fill:#99BFE3;}
	.st6{fill:none;stroke:#005EB8;stroke-width:4;stroke-linecap:round;stroke-linejoin:round;}
	.st7{fill:none;stroke:#005EB8;stroke-width:3.2242;stroke-linecap:round;stroke-linejoin:round;stroke-miterlimit:10;}
	.st8{fill:#005EB8;}
	.st9{fill:none;stroke:#005EB8;stroke-width:3;stroke-linecap:round;stroke-linejoin:round;stroke-miterlimit:10;}
	.st10{fill:none;stroke:#000000;stroke-width:4;stroke-linecap:round;stroke-linejoin:round;stroke-miterlimit:10;}
</style>
<g id="Layer_1">
	<path class="st0" d="M198,182H42c-6.63,0-12-5.37-12-12V74c0-6.63,5.37-12,12-12h156c6.63,0,12,5.37,12,12v96
		C210,176.63,204.63,182,198,182z"/>
	<line class="st0" x1="30" y1="92" x2="210" y2="92"/>
	<line class="st0" x1="60" y1="114" x2="180" y2="114"/>
	<line class="st0" x1="60" y1="135" x2="180" y2="135"/>
	<line class="st0" x1="60.1" y1="156" x2="141.1" y2="156"/>
	<circle class="st8" cx="46.8" cy="77.14" r="3.65"/>
	<circle class="st8" cx="61.8" cy="77.14" r="3.65"/>
	<circle class="st8" cx="76.8" cy="77.14" r="3.65"/>
	<rect x="166.16" y="149.08" class="st0" width="13.84" height="13.84"/>
</g>
<g id="Layer_2">
</g>
</svg>
