<?xml version="1.0" encoding="utf-8"?>
<!-- Generator: Adobe Illustrator 23.0.1, SVG Export Plug-In . SVG Version: 6.00 Build 0)  -->
<svg version="1.1" xmlns="http://www.w3.org/2000/svg" xmlns:xlink="http://www.w3.org/1999/xlink" x="0px" y="0px"
	 viewBox="0 0 240 240" style="enable-background:new 0 0 240 240;" xml:space="preserve">
<style type="text/css">
	.st0{fill:none;stroke:#005EB8;stroke-width:4;stroke-linecap:round;stroke-linejoin:round;stroke-miterlimit:10;}
	.st1{fill:none;stroke:#005EB8;stroke-width:4;stroke-miterlimit:10;}
	.st2{display:none;}
	.st3{display:inline;}
	.st4{fill:#005EB8;}
	.st5{display:inline;fill:#005EB8;}
	.st6{fill:none;stroke:#005EB8;stroke-width:4;stroke-linecap:round;stroke-linejoin:round;}
	.st7{fill:none;stroke:#005EB8;stroke-width:3.2242;stroke-linecap:round;stroke-linejoin:round;stroke-miterlimit:10;}
	.st8{fill:#005EB8;}
	.st9{fill:none;stroke:#005EB8;stroke-width:3;stroke-linecap:round;stroke-linejoin:round;stroke-miterlimit:10;}
	.st10{fill:none;stroke:#005EB8;stroke-width:4;stroke-linecap:round;stroke-linejoin:round;stroke-miterlimit:10;}
</style>
<g id="Layer_1">
	<path class="st0" d="M209.55,131.71L197,124.47c-1.85-1.07-2.88-3.12-2.66-5.24c0.23-2.27,0.34-4.57,0.34-6.9
		c0-2.9-0.19-5.75-0.54-8.56c-0.27-2.17,0.75-4.3,2.65-5.39l11.92-6.88c2.58-1.49,3.47-4.79,1.98-7.38l-18.9-32.74
		c-1.49-2.58-4.79-3.47-7.38-1.98l-12.55,7.25c-1.86,1.07-4.16,0.92-5.9-0.33c-4.16-3-8.66-5.54-13.44-7.57
		c-2.02-0.85-3.35-2.8-3.35-4.99V30.02c0-2.98-2.42-5.4-5.4-5.4h-37.8c-2.98,0-5.4,2.42-5.4,5.4v14.49c0,2.14-1.28,4.06-3.23,4.94
		c-4.73,2.13-9.17,4.78-13.26,7.88c-1.75,1.33-4.11,1.51-6.01,0.41l-11.92-6.88c-2.58-1.49-5.89-0.61-7.38,1.98l-18.9,32.74
		c-1.49,2.58-0.61,5.89,1.98,7.38l12.54,7.24c1.85,1.07,2.88,3.12,2.66,5.24c-0.23,2.27-0.34,4.57-0.34,6.9
		c0,2.9,0.19,5.75,0.54,8.56c0.27,2.17-0.75,4.3-2.65,5.39l-11.92,6.88c-2.58,1.49-3.47,4.79-1.98,7.38l18.9,32.74
		c1.49,2.58,4.79,3.47,7.38,1.98L79.54,168c1.86-1.07,4.16-0.92,5.9,0.33c4.16,3,8.66,5.54,13.44,7.57c2.02,0.85,3.35,2.8,3.35,4.99
		v13.74c0,2.98,2.42,5.4,5.4,5.4h37.8c2.98,0,5.4-2.42,5.4-5.4v-14.49c0-2.14,1.28-4.06,3.23-4.94c4.73-2.13,9.17-4.78,13.26-7.88
		c1.75-1.33,4.11-1.51,6.01-0.41l11.92,6.88c2.58,1.49,5.89,0.61,7.38-1.98l18.9-32.74C213.01,136.5,212.13,133.2,209.55,131.71z
		 M125.7,152.83c-22.37,0-40.5-18.13-40.5-40.5c0-22.37,18.13-40.5,40.5-40.5s40.5,18.13,40.5,40.5
		C166.2,134.69,148.06,152.83,125.7,152.83z"/>
</g>
<g id="Layer_2">
</g>
</svg>
