<?xml version="1.0" encoding="UTF-8"?>
<svg width="920px" height="600px" viewBox="0 0 920 600" version="1.1" xmlns="http://www.w3.org/2000/svg" xmlns:xlink="http://www.w3.org/1999/xlink">
    <title>Is it working?</title>
    <g id="Is-it-working?" stroke="none" stroke-width="1" fill="none" fill-rule="evenodd">
        <rect fill="#FFFFFF" x="0" y="0" width="920" height="600"></rect>
        <g id="Repeat-double-arrow-SVG-Blue" transform="translate(462.000000, 290.293538) rotate(-330.000000) translate(-462.000000, -290.293538) translate(239.000000, 72.293538)" stroke="#005EB8" stroke-linecap="round" stroke-linejoin="round" stroke-width="4">
            <path d="M336.42245,402.574405 C302.7501,423.587519 263.135571,435.700962 220.549952,435.700962 C99.9732287,435.700962 2.42245037,338.298995 2.42245037,217.906208 C2.42245037,155.114077 29.1622576,98.5022734 71.7478766,58.7009619" id="Path"></path>
            <path d="M111.57755,30.131056 C143.758682,11.4071458 181.385852,0.566987298 221.488493,0.566987298 C342.043965,0.566987298 439.57755,97.6356795 439.57755,217.616525 C439.57755,278.7156 414.080191,333.901862 373.234908,373.566987" id="Path"></path>
            <polyline id="Path" points="0.446497727 56.9779319 75.4464977 56.9779319 75.4464977 131.977932"></polyline>
            <polyline id="Path" points="445.785553 375.423992 370.785553 375.423992 370.785553 300.423992"></polyline>
        </g>
        <text id="How-do-you-know-it-i" font-family="FrutigerLTStd-Bold, Frutiger LT Std" font-size="32" font-weight="bold" line-spacing="35" fill="#005EB8">
            <tspan x="323" y="240">How do you know</tspan>
            <tspan x="323" y="275">it is working?</tspan>
        </text>
        <text id="How-can-you-show-the" font-family="FrutigerLTStd-Bold, Frutiger LT Std" font-size="18" font-weight="bold" line-spacing="22" fill="#425563">
            <tspan x="323" y="308">How can you show the board</tspan>
            <tspan x="323" y="330">that you know it is working?</tspan>
        </text>
        <g id="Group-2" transform="translate(644.000000, 95.000000)" font-family="FrutigerLTStd-Bold, Frutiger LT Std" font-weight="bold">
            <text id="What-are-you-trying" font-size="16" fill="#425563">
                <tspan x="0.216" y="41">What are you trying to achieve?</tspan>
            </text>
            <text id="1.-Objectives" font-size="21" fill="#005EB8">
                <tspan x="0.479" y="16">1. Objectives</tspan>
            </text>
        </g>
        <g id="Group-3" transform="translate(708.000000, 359.000000)" font-family="FrutigerLTStd-Bold, Frutiger LT Std" font-weight="bold">
            <text id="What-could-go-wrong?" font-size="16" fill="#425563">
                <tspan x="0.42" y="41">What could go wrong?</tspan>
            </text>
            <text id="2.-Risks" font-size="21" fill="#005EB8">
                <tspan x="0.3275" y="16">2. Risks</tspan>
            </text>
        </g>
        <g id="Group-4" transform="translate(238.000000, 523.000000)" font-family="FrutigerLTStd-Bold, Frutiger LT Std" font-weight="bold">
            <text id="What-are-you-doing-a" font-size="16" fill="#425563">
                <tspan x="0.008" y="41">What are you doing about it?</tspan>
            </text>
            <text id="3.-Controls" font-size="21" fill="#005EB8">
                <tspan x="0.101" y="16">3. Controls</tspan>
            </text>
        </g>
        <g id="Group-5" transform="translate(21.000000, 163.000000)" font-family="FrutigerLTStd-Bold, Frutiger LT Std" font-weight="bold">
            <text id="How-is-it-improving" font-size="16" fill="#425563">
                <tspan x="0.136" y="41">How is it improving things?</tspan>
            </text>
            <text id="4.-Assurance" font-size="21" fill="#005EB8">
                <tspan x="0.1655" y="16">4. Assurance</tspan>
            </text>
        </g>
        <g id="target" transform="translate(532.000000, 52.000000)" stroke="#005EB8" stroke-linecap="round" stroke-linejoin="round" stroke-width="4">
            <ellipse id="Oval" fill="#FFFFFF" cx="47" cy="55.5" rx="47" ry="47.5"></ellipse>
            <circle id="Oval" cx="48" cy="55" r="19"></circle>
            <circle id="Oval" cx="48" cy="55" r="33"></circle>
            <line x1="47" y1="57" x2="97" y2="7" id="Path"></line>
            <polyline id="Path" points="97 20 84 20 84 7"></polyline>
            <polyline id="Path" points="104 13 91 13 91 0"></polyline>
        </g>
        <g id="siren" transform="translate(603.000000, 299.000000)" stroke="#005EB8" stroke-linecap="round" stroke-linejoin="round">
            <rect id="Rectangle" stroke-width="4" fill="#FFFFFF" x="20" y="90" width="69" height="11"></rect>
            <rect id="Rectangle" stroke-width="4" fill="#FFFFFF" x="23" y="82" width="62" height="7"></rect>
            <path d="M27,81 L35.5347913,42.2781392 C35.7855547,41.4741199 36.5484924,40.9477655 37.3813121,41.0042154 L69.7115308,41.0042154 C70.5268268,40.9484847 71.2784062,41.450061 71.5473161,42.2293506 L81,80.9783162" id="Path" stroke-width="3.58" fill="#FFFFFF"></path>
            <line x1="0" y1="43.5" x2="23" y2="43.5" id="Path" stroke-width="4"></line>
            <line x1="84" y1="43.5" x2="107" y2="43.5" id="Path" stroke-width="4"></line>
            <line x1="54.5" y1="23" x2="54.5" y2="0" id="Path" stroke-width="4"></line>
            <line x1="80" y1="30" x2="96" y2="14" id="Path" stroke-width="4"></line>
            <line x1="28" y1="30" x2="12" y2="14" id="Path" stroke-width="4"></line>
            <line x1="53.5" y1="82" x2="53.5" y2="67" id="Path" stroke-width="4"></line>
            <circle id="Oval" stroke-width="4" cx="53.5" cy="61.5" r="5.5"></circle>
        </g>
        <g id="switch" transform="translate(238.000000, 389.000000)" stroke="#005EB8" stroke-linecap="round" stroke-linejoin="round">
            <path d="M70.1255572,110 L2.87444279,110 C1.30163447,110 0,108.705248 0,107.140755 L0,2.85924473 C0,1.29475233 1.30163447,0 2.87444279,0 L70.1255572,0 C71.6983655,0 73,1.29475233 73,2.85924473 L73,107.140755 C73,108.705248 71.6983655,110 70.1255572,110 Z" id="Path" stroke-width="4" fill="#FFFFFF"></path>
            <path d="M46.0710383,74 L27.9289617,74 C27.4371585,74 27,73.5686778 27,73.0834403 L27,50.7086008 L27,32.9165597 C27,32.4313222 27.4371585,32 27.9289617,32 L46.0710383,32 C46.5628415,32 47,32.4313222 47,32.9165597 L47,51.2477535" id="Path" stroke-width="4"></path>
            <line x1="52" y1="64.4" x2="34" y2="64.6" id="Path" stroke-width="4"></line>
            <polyline id="Path" stroke-width="4" points="46.0230608 74 53 64.0570071 46.9496855 51 27 51 34.6855346 63.783848 27.9266247 74"></polyline>
            <g id="Group" transform="translate(60.000000, 4.000000)" stroke-width="2">
                <g transform="translate(0.000000, 92.941489)" id="Path">
                    <path d="M7.78666667,4.02925532 C7.78666667,6.07074468 6.13333333,7.73617021 4.10666667,7.73617021 C3.09333333,7.73617021 2.18666667,7.30638298 1.54666667,6.66170213 C0.906666667,6.01702128 0.48,5.05 0.48,4.08297872 C0.48,2.04148936 2.13333333,0.37606383 4.16,0.37606383 C6.18666667,0.322340426 7.78666667,1.98776596 7.78666667,4.02925532 Z"></path>
                    <line x1="6.82666667" y1="1.50425532" x2="1.54666667" y2="6.60797872"></line>
                </g>
                <g id="Path">
                    <path d="M0.533333333,3.65319149 C0.8,1.61170213 2.66666667,0.214893617 4.64,0.483510638 C5.65333333,0.644680851 6.50666667,1.12819149 7.04,1.88031915 C7.62666667,2.63244681 7.89333333,3.59946809 7.73333333,4.62021277 C7.46666667,6.66170213 5.6,8.05851064 3.62666667,7.78989362 C1.65333333,7.5212766 0.266666667,5.69468085 0.533333333,3.65319149 Z"></path>
                    <line x1="1.17333333" y1="6.2856383" x2="7.04" y2="1.93404255"></line>
                </g>
            </g>
            <g id="Group" transform="translate(5.000000, 4.000000)" stroke-width="2">
                <g transform="translate(0.000000, 92.941489)" id="Path">
                    <path d="M7.46666667,4.02925532 C7.46666667,6.07074468 5.81333333,7.73617021 3.78666667,7.73617021 C2.77333333,7.73617021 1.86666667,7.30638298 1.22666667,6.66170213 C0.586666667,6.01702128 0.16,5.05 0.16,4.08297872 C0.16,2.04148936 1.81333333,0.37606383 3.84,0.37606383 C5.81333333,0.322340426 7.46666667,1.98776596 7.46666667,4.02925532 Z"></path>
                    <line x1="6.45333333" y1="1.50425532" x2="1.22666667" y2="6.60797872"></line>
                </g>
                <g id="Path">
                    <path d="M3.68,7.84361702 C1.65333333,7.78989362 0.0533333333,6.07074468 0.16,4.02925532 C0.213333333,3.00851064 0.64,2.09521277 1.33333333,1.45053191 C2.02666667,0.805851064 2.93333333,0.429787234 3.94666667,0.429787234 C5.97333333,0.483510638 7.57333333,2.20265957 7.46666667,4.24414894 C7.36,6.2856383 5.70666667,7.89734043 3.68,7.84361702 Z"></path>
                    <line x1="6.18666667" y1="6.87659574" x2="1.28" y2="1.45053191"></line>
                </g>
            </g>
        </g>
        <g id="tick-trustworthy" transform="translate(221.000000, 95.000000)" stroke="#005EB8" stroke-linecap="round" stroke-width="4">
            <path d="M107,53.0267542 C107,57.5214538 100.839394,61.1600202 99.7045455,65.2801615 C98.569697,69.4003029 101.974242,75.767794 99.8126263,79.5133771 C97.6510101,83.2589601 90.409596,83.4194851 87.3292929,86.5229682 C84.2489899,89.6264513 84.0868687,96.6895507 80.25,98.8833922 C76.4131313,101.077234 70.1984848,97.5991923 65.8752525,98.7763756 C61.5520202,99.9000505 58.0393939,106 53.5,106 C48.9606061,106 45.2858586,99.9000505 41.1247475,98.7763756 C36.9636364,97.6527007 30.5328283,101.023725 26.75,98.8833922 C22.9671717,96.7430591 22.8050505,89.572943 19.6707071,86.5229682 C16.5363636,83.4729934 9.4030303,83.3124685 7.18737374,79.5133771 C4.97171717,75.7142857 8.48434343,69.5608279 7.29545455,65.2801615 C6.16060606,60.9994952 0,57.5214538 0,53.0267542 C0,48.5320545 6.10656566,44.8934881 7.18737374,40.7733468 C8.32222222,36.6532055 4.91767677,30.2857143 7.07929293,26.5401312 C9.24090909,22.7945482 16.4823232,22.6340232 19.5626263,19.5305401 C22.6429293,16.427057 22.8050505,9.31044927 26.6959596,7.06309944 C30.5868687,4.81574962 36.8015152,8.34729934 41.1247475,7.22362443 C45.4479798,6.09994952 48.9606061,0 53.5,0 C58.0393939,0 61.7141414,6.09994952 65.8752525,7.22362443 C70.0363636,8.34729934 76.4671717,4.97627461 80.25,7.11660777 C84.0328283,9.25694094 84.1949495,16.427057 87.3292929,19.4770318 C90.4636364,22.5270066 97.6510101,22.6875315 99.9207071,26.5401312 C102.190404,30.3392226 98.6237374,36.4926805 99.8126263,40.7733468 C100.947475,45.0005048 107,48.5320545 107,53.0267542 Z" id="Path" fill="#FFFFFF"></path>
            <polyline id="Path" points="31 53.0980092 45.8559424 71 76 36"></polyline>
        </g>
    </g>
</svg>